{"glyphs":{"0":{"ha":1583,"x_min":0,"x_max":0,"o":"m 653 1069 l 931 1069 l 931 42 l 653 42 z m 681 1125 b 69 556 347 1125 69 1028 b 681 -14 69 83 347 -14 l 903 -14 b 1514 556 1236 -14 1514 83 b 903 1125 1514 1028 1236 1125 z "},"1":{"ha":856,"x_min":0,"x_max":0,"o":"m 50 792 l 189 908 l 189 0 l 744 0 l 744 1111 l 342 1111 l 14 835 z "},"2":{"ha":1431,"x_min":0,"x_max":0,"o":"m 736 56 b 1361 806 736 271 1361 403 b 764 1125 1361 1056 1139 1125 l 472 1125 b 69 778 257 1125 69 1076 l 125 778 b 472 1069 125 1035 299 1069 b 750 889 694 1069 750 1000 b 83 111 750 674 83 542 l 83 0 l 1333 0 l 1333 56 z "},"3":{"ha":1472,"x_min":0,"x_max":0,"o":"m 583 42 b 111 333 333 42 111 76 l 56 333 b 583 -14 56 35 292 -14 l 778 -14 b 1431 292 1153 -14 1431 42 b 1076 576 1431 451 1292 542 l 1076 597 b 1417 819 1292 625 1417 708 b 778 1125 1417 1042 1139 1125 l 583 1125 b 56 778 292 1125 56 1076 l 111 778 b 583 1069 111 1035 333 1069 l 778 1069 l 778 42 z "},"4":{"ha":1375,"x_min":0,"x_max":0,"o":"m 0 306 l 0 250 l 694 250 l 694 0 l 1250 0 l 1250 250 l 1375 250 l 1375 306 l 1250 306 l 1250 1111 l 722 1111 z m 76 306 l 694 993 l 694 306 z "},"5":{"ha":1472,"x_min":0,"x_max":0,"o":"m 639 667 l 639 1056 l 1319 1056 l 1319 1111 l 111 1111 l 111 611 l 819 611 l 819 42 l 597 42 b 125 333 347 42 125 76 l 69 333 b 597 -14 69 35 306 -14 l 806 -14 b 1403 326 1125 -14 1403 28 b 806 667 1403 611 1194 667 z "},"6":{"ha":1556,"x_min":0,"x_max":0,"o":"m 681 597 l 903 597 l 903 42 l 681 42 z m 889 -14 b 1486 319 1306 -14 1486 42 b 889 653 1486 597 1306 653 l 681 653 l 681 1056 l 917 1056 b 1389 819 1167 1056 1389 1021 l 1444 819 b 917 1111 1444 1063 1208 1111 l 694 1111 b 69 542 347 1111 69 1014 b 694 -14 69 83 347 -14 z "},"7":{"ha":1229,"x_min":0,"x_max":0,"o":"m 14 1056 l 597 1056 l 76 0 l 694 0 l 1215 1056 l 1215 1111 l 14 1111 z "},"8":{"ha":1556,"x_min":0,"x_max":0,"o":"m 889 56 l 667 56 l 667 1056 l 889 1056 z m 667 1111 b 97 833 375 1111 97 1014 b 368 597 97 711 222 625 l 368 576 b 42 306 181 542 42 453 b 667 0 42 97 319 0 l 889 0 b 1514 306 1236 0 1514 97 b 1188 576 1514 453 1375 542 l 1188 597 b 1458 833 1333 625 1458 711 b 889 1111 1458 1014 1181 1111 z "},"9":{"ha":1556,"x_min":0,"x_max":0,"o":"m 875 500 l 653 500 l 653 1056 l 875 1056 z m 667 1111 b 69 778 250 1111 69 1056 b 667 444 69 500 250 444 l 875 444 l 875 42 l 639 42 b 167 278 389 42 167 76 l 111 278 b 639 -14 111 35 347 -14 l 861 -14 b 1486 556 1208 -14 1486 83 b 861 1111 1486 1014 1208 1111 z "},"Б":{"ha":1556,"x_min":0,"x_max":0,"o":"m 111 0 l 889 0 b 1514 333 1236 0 1514 97 b 889 667 1514 569 1236 667 l 667 667 l 667 1056 l 1347 1056 l 1347 1111 l 111 1111 z m 889 56 l 667 56 l 667 611 l 889 611 z "},"В":{"ha":1583,"x_min":0,"x_max":0,"o":"m 889 56 l 667 56 l 667 1056 l 889 1056 z m 1188 597 b 1486 833 1361 625 1486 711 b 889 1111 1486 1014 1208 1111 l 111 1111 l 111 0 l 889 0 b 1542 306 1264 0 1542 97 b 1188 576 1542 453 1403 542 z "},"Г":{"ha":1217,"x_min":0,"x_max":0,"o":"m 111 0 l 667 0 l 667 1056 l 1203 1056 l 1203 1111 l 111 1111 z "},"Е":{"ha":1236,"x_min":0,"x_max":0,"o":"m 111 0 l 1208 0 l 1208 56 l 667 56 l 667 556 l 1056 556 l 1056 611 l 667 611 l 667 1056 l 1181 1056 l 1181 1111 l 111 1111 z "},"F":{"ha":1194,"x_min":0,"x_max":0,"o":"m 111 0 l 667 0 l 667 514 l 1111 514 l 1111 569 l 667 569 l 667 1056 l 1181 1056 l 1181 1111 l 111 1111 z "},"E":{"ha":1236,"x_min":0,"x_max":0,"o":"m 111 0 l 1208 0 l 1208 56 l 667 56 l 667 556 l 1056 556 l 1056 611 l 667 611 l 667 1056 l 1181 1056 l 1181 1111 l 111 1111 z "},"D":{"ha":1569,"x_min":0,"x_max":0,"o":"m 111 0 l 889 0 b 1500 556 1222 0 1500 97 b 889 1111 1500 1014 1222 1111 l 111 1111 z m 903 1056 l 903 56 l 667 56 l 667 1056 z "},"O":{"ha":1583,"x_min":0,"x_max":0,"o":"m 653 1069 l 931 1069 l 931 42 l 653 42 z m 681 1125 b 69 556 347 1125 69 1028 b 681 -14 69 83 347 -14 l 903 -14 b 1514 556 1236 -14 1514 83 b 903 1125 1514 1028 1236 1125 z "},"Л":{"ha":1417,"x_min":0,"x_max":0,"o":"m 250 1111 b 0 56 250 458 167 56 l 0 0 b 306 1056 222 0 306 403 l 750 1056 l 750 0 l 1306 0 l 1306 1111 z "},"Д":{"ha":1500,"x_min":0,"x_max":0,"o":"m 236 1111 b 56 56 236 472 208 306 l -28 56 l -28 0 l 1458 0 l 1458 56 l 1361 56 l 1361 1111 z m 292 1056 l 806 1056 l 806 56 l 118 56 b 292 1056 264 306 292 472 z "},"C":{"ha":1514,"x_min":0,"x_max":0,"o":"m 681 1125 b 69 556 347 1125 69 1028 b 681 -14 69 83 347 -14 l 931 -14 b 1458 333 1222 -14 1458 35 l 1403 333 b 931 42 1403 76 1181 42 l 681 42 l 681 1069 l 931 1069 b 1403 778 1181 1069 1403 1035 l 1458 778 b 931 1125 1458 1076 1222 1125 z "},"H":{"ha":1540,"x_min":0,"x_max":0,"o":"m 111 0 l 639 0 l 639 528 l 901 528 l 901 0 l 1429 0 l 1429 1111 l 901 1111 l 901 583 l 639 583 l 639 1111 l 111 1111 z "},"I":{"ha":778,"x_min":0,"x_max":0,"o":"m 111 0 l 667 0 l 667 1111 l 111 1111 z "},"J":{"ha":1111,"x_min":0,"x_max":0,"o":"m 1028 1111 l 472 1111 l 472 56 b 69 333 292 56 69 90 l 14 333 b 514 0 14 49 250 0 b 1028 417 750 0 1028 97 z "},"L":{"ha":1153,"x_min":0,"x_max":0,"o":"m 111 0 l 1139 0 l 1139 56 l 667 56 l 667 1111 l 111 1111 z "},"З":{"ha":1500,"x_min":0,"x_max":0,"o":"m 583 42 b 111 333 333 42 111 76 l 56 333 b 583 -14 56 35 292 -14 l 806 -14 b 1458 292 1181 -14 1458 42 b 1104 576 1458 451 1319 542 l 1104 597 b 1444 847 1319 625 1444 708 b 806 1125 1444 1042 1167 1125 l 583 1125 b 56 778 292 1125 56 1076 l 111 778 b 583 1069 111 1035 333 1069 l 806 1069 l 806 42 z "},"И":{"ha":1597,"x_min":0,"x_max":0,"o":"m 111 0 l 625 0 l 958 931 l 958 0 l 1472 0 l 1472 1111 l 958 1111 l 625 181 l 625 1111 l 111 1111 z "},"Й":{"ha":1611,"x_min":0,"x_max":0,"o":"m 111 0 l 625 0 l 958 931 l 958 0 l 1472 0 l 1472 1111 l 958 1111 l 625 169 l 625 1111 l 111 1111 z m 792 1361 b 542 1514 639 1361 542 1417 l 486 1514 b 792 1306 486 1375 597 1306 b 1097 1514 986 1306 1097 1375 l 1042 1514 b 792 1361 1042 1417 944 1361 z "},"N":{"ha":1403,"x_min":0,"x_max":0,"o":"m 111 1111 l 111 0 l 167 0 l 167 903 l 715 0 l 1292 0 l 1292 1111 l 1236 1111 l 1236 208 l 688 1111 z "},"P":{"ha":1542,"x_min":0,"x_max":0,"o":"m 111 0 l 667 0 l 667 389 l 889 389 b 1514 750 1236 389 1514 486 b 889 1111 1514 1014 1236 1111 l 111 1111 z m 889 444 l 667 444 l 667 1056 l 889 1056 z "},"T":{"ha":1306,"x_min":0,"x_max":0,"o":"m 931 1056 l 1292 1056 l 1292 1111 l 14 1111 l 14 1056 l 375 1056 l 375 0 l 931 0 z "},"Q":{"ha":1583,"x_min":0,"x_max":0,"o":"m 681 0 l 1486 0 l 1486 56 l 1153 56 l 1153 69 b 1514 556 1389 139 1514 269 b 903 1125 1514 1028 1236 1125 l 681 1125 b 69 556 347 1125 69 1028 b 681 0 69 97 347 0 z m 653 1069 l 931 1069 l 931 56 l 653 56 z "},"U":{"ha":1361,"x_min":0,"x_max":0,"o":"m 750 -14 b 1278 403 1042 -14 1278 35 l 1278 1111 l 1222 1111 l 1222 403 b 750 42 1222 76 1000 42 l 639 42 l 639 1111 l 83 1111 l 83 403 b 639 -14 83 83 361 -14 z "},"Ц":{"ha":1611,"x_min":0,"x_max":0,"o":"m 1569 0 l 1569 56 l 1472 56 l 1472 1111 l 944 1111 l 944 56 l 639 56 l 639 1111 l 111 1111 l 111 0 z "},"Щ":{"ha":2194,"x_min":0,"x_max":0,"o":"m 819 56 l 639 56 l 639 1111 l 111 1111 l 111 0 l 2153 0 l 2153 56 l 2056 56 l 2056 1111 l 1528 1111 l 1528 56 l 1347 56 l 1347 1111 l 819 1111 z "},"Ш":{"ha":2167,"x_min":0,"x_max":0,"o":"m 819 56 l 639 56 l 639 1111 l 111 1111 l 111 0 l 2056 0 l 2056 1111 l 1528 1111 l 1528 56 l 1347 56 l 1347 1111 l 819 1111 z "},"Ч":{"ha":1528,"x_min":0,"x_max":0,"o":"m 861 0 l 1389 0 l 1389 1111 l 861 1111 l 861 458 l 611 458 l 611 1111 l 56 1111 l 56 819 b 611 403 56 500 333 403 l 861 403 z "},"Н":{"ha":1540,"x_min":0,"x_max":0,"o":"m 111 0 l 639 0 l 639 528 l 901 528 l 901 0 l 1429 0 l 1429 1111 l 901 1111 l 901 583 l 639 583 l 639 1111 l 111 1111 z "},"О":{"ha":1583,"x_min":0,"x_max":0,"o":"m 653 1069 l 931 1069 l 931 42 l 653 42 z m 681 1125 b 69 556 347 1125 69 1028 b 681 -14 69 83 347 -14 l 903 -14 b 1514 556 1236 -14 1514 83 b 903 1125 1514 1028 1236 1125 z "},"П":{"ha":1540,"x_min":0,"x_max":0,"o":"m 111 0 l 639 0 l 639 1056 l 901 1056 l 901 0 l 1429 0 l 1429 1111 l 111 1111 z "},"Р":{"ha":1542,"x_min":0,"x_max":0,"o":"m 111 0 l 667 0 l 667 389 l 889 389 b 1514 750 1236 389 1514 486 b 889 1111 1514 1014 1236 1111 l 111 1111 z m 889 444 l 667 444 l 667 1056 l 889 1056 z "},"С":{"ha":1514,"x_min":0,"x_max":0,"o":"m 681 1125 b 69 556 347 1125 69 1028 b 681 -14 69 83 347 -14 l 931 -14 b 1458 333 1222 -14 1458 35 l 1403 333 b 931 42 1403 76 1181 42 l 681 42 l 681 1069 l 931 1069 b 1403 778 1181 1069 1403 1035 l 1458 778 b 931 1125 1458 1076 1222 1125 z "},"Т":{"ha":1306,"x_min":0,"x_max":0,"o":"m 931 1056 l 1292 1056 l 1292 1111 l 14 1111 l 14 1056 l 375 1056 l 375 0 l 931 0 z "},"M":{"ha":1944,"x_min":0,"x_max":0,"o":"m 1278 0 l 1833 0 l 1833 1111 l 1278 1111 l 1049 521 l 694 1111 l 111 1111 l 111 0 l 167 0 l 167 903 l 715 0 l 903 0 l 1278 958 z "},"V":{"ha":1417,"x_min":0,"x_max":0,"o":"m 1389 1111 l 1333 1111 l 978 186 l 625 1111 l 28 1111 l 451 0 l 965 0 z "},"A":{"ha":1553,"x_min":0,"x_max":0,"o":"m 506 986 l 928 0 l 1525 0 l 1060 1111 l 499 1111 l 28 0 l 89 0 z "},"X":{"ha":1285,"x_min":0,"x_max":0,"o":"m 1229 1111 l 1167 1111 l 903 660 l 646 1111 l 0 1111 l 347 507 l 56 0 l 118 0 l 382 451 l 639 0 l 1285 0 l 938 604 z "},"Y":{"ha":1313,"x_min":0,"x_max":0,"o":"m 972 549 l 1299 1111 l 1236 1111 l 944 604 l 646 1111 l 14 1111 l 417 396 l 417 0 l 972 0 z "},"У":{"ha":1271,"x_min":0,"x_max":0,"o":"m 1271 1111 l 1208 1111 l 938 597 l 632 1111 l 0 1111 l 481 299 l 778 299 l 743 236 b 326 42 643 56 590 42 l 326 -14 b 806 236 632 -14 681 0 z "},"Z":{"ha":1222,"x_min":0,"x_max":0,"o":"m 56 0 l 1167 0 l 1167 56 l 667 56 l 1167 1042 l 1167 1111 l 56 1111 l 56 1056 l 547 1056 l 56 83 z "},"K":{"ha":1632,"x_min":0,"x_max":0,"o":"m 986 0 l 1632 0 l 1111 840 l 1111 854 l 1424 1111 l 1333 1111 l 667 556 l 667 1111 l 111 1111 l 111 0 l 667 0 l 667 486 l 694 507 z "},"S":{"ha":1361,"x_min":0,"x_max":0,"o":"m 667 917 b 861 1069 667 1014 722 1069 b 1208 778 1035 1069 1208 1035 l 1264 778 b 861 1125 1264 1076 1076 1125 l 611 1125 b 56 806 278 1125 56 1056 b 694 194 56 403 694 438 b 500 42 694 97 639 42 b 118 333 292 42 118 76 l 63 333 b 500 -14 63 35 250 -14 l 750 -14 b 1306 306 1083 -14 1306 56 b 667 917 1306 708 667 674 z "},"Э":{"ha":1514,"x_min":0,"x_max":0,"o":"m 583 1125 b 56 778 292 1125 56 1076 l 111 778 b 583 1069 111 1035 333 1069 l 833 1069 l 833 42 l 583 42 b 111 333 333 42 111 76 l 56 333 b 583 -14 56 35 292 -14 l 833 -14 b 1444 556 1167 -14 1444 83 b 833 1125 1444 1028 1167 1125 z "},"Ю":{"ha":2153,"x_min":0,"x_max":0,"o":"m 1292 1069 l 1514 1069 l 1514 42 l 1292 42 z m 639 583 l 639 1111 l 111 1111 l 111 0 l 639 0 l 639 528 l 722 528 b 1333 -14 736 83 1007 -14 l 1472 -14 b 2083 556 1806 -14 2083 83 b 1472 1125 2083 1028 1806 1125 l 1333 1125 b 722 583 1007 1125 736 1028 z "},"Ь":{"ha":1542,"x_min":0,"x_max":0,"o":"m 111 0 l 889 0 b 1514 333 1236 0 1514 97 b 889 667 1514 569 1236 667 l 667 667 l 667 1111 l 111 1111 z m 889 56 l 667 56 l 667 611 l 889 611 z "},"Ъ":{"ha":1653,"x_min":0,"x_max":0,"o":"m 1000 56 l 778 56 l 778 611 l 1000 611 z m 0 1111 l 0 1056 l 222 1056 l 222 0 l 1000 0 b 1625 333 1347 0 1625 97 b 1000 667 1625 569 1347 667 l 778 667 l 778 1111 z "},"Ы":{"ha":2167,"x_min":0,"x_max":0,"o":"m 111 0 l 833 0 b 1458 333 1181 0 1458 97 b 833 667 1458 569 1181 667 l 667 667 l 667 1111 l 111 1111 z m 861 56 l 667 56 l 667 611 l 861 611 z m 1528 0 l 2056 0 l 2056 1111 l 1528 1111 z "},"R":{"ha":1556,"x_min":0,"x_max":0,"o":"m 924 0 l 1542 0 l 1271 493 l 1271 507 b 1500 778 1403 549 1500 639 b 875 1111 1500 1014 1222 1111 l 111 1111 l 111 0 l 667 0 l 667 444 l 681 444 z m 875 500 l 667 500 l 667 1056 l 875 1056 z "},"G":{"ha":1514,"x_min":0,"x_max":0,"o":"m 931 500 l 1403 500 l 1403 333 b 931 42 1403 76 1181 42 l 681 42 l 681 1069 l 931 1069 b 1403 778 1181 1069 1403 1035 l 1458 778 b 931 1125 1458 1076 1222 1125 l 681 1125 b 69 556 347 1125 69 1028 b 681 -14 69 83 347 -14 l 931 -14 b 1458 333 1222 -14 1458 35 l 1458 556 l 931 556 z "},"Ф":{"ha":1986,"x_min":0,"x_max":0,"o":"m 722 0 l 1264 0 l 1264 153 l 1375 153 b 1972 556 1694 153 1972 250 b 1375 958 1972 861 1694 958 l 1264 958 l 1264 1111 l 722 1111 l 722 958 l 611 958 b 14 556 292 958 14 861 b 611 153 14 250 292 153 l 722 153 z m 1417 208 l 1250 208 l 1250 903 l 1417 903 z m 569 903 l 736 903 l 736 208 l 569 208 z "},"W":{"ha":1951,"x_min":0,"x_max":0,"o":"m 1119 0 l 1667 0 l 1924 1111 l 1868 1111 l 1649 167 l 1293 1111 l 1099 1111 l 817 161 l 597 1111 l 28 1111 l 285 0 l 826 0 l 954 432 z "}," ":{"ha":833,"x_min":0,"x_max":0,"o":""},"Ж":{"ha":2306,"x_min":0,"x_max":0,"o":"m 1431 0 l 1431 486 l 1472 514 l 1701 0 l 2306 0 l 1917 875 l 1917 889 l 2188 1111 l 2097 1111 l 1431 556 l 1431 1111 l 875 1111 l 875 556 l 208 1111 l 118 1111 l 389 889 l 389 875 l 0 0 l 604 0 l 833 514 l 875 486 l 875 0 z "},"Я":{"ha":1556,"x_min":0,"x_max":0,"o":"m 875 444 l 889 444 l 889 0 l 1444 0 l 1444 1111 l 681 1111 b 56 778 333 1111 56 1014 b 285 507 56 639 153 549 l 285 493 l 14 0 l 632 0 z m 681 1056 l 889 1056 l 889 500 l 681 500 z "},"a":{"ha":1319,"x_min":0,"x_max":0,"o":"m 431 500 b 56 243 264 500 56 431 b 431 -14 56 56 264 -14 b 736 56 583 -14 681 28 l 750 56 l 764 0 l 1222 0 l 1222 500 b 736 847 1222 764 1028 847 l 528 847 b 167 625 306 847 167 778 l 222 625 b 528 792 222 750 347 792 l 736 792 l 736 500 z m 583 56 l 583 444 l 736 444 l 736 111 b 583 56 694 83 639 63 z "},"c":{"ha":1236,"x_min":0,"x_max":0,"o":"m 69 417 b 556 -14 69 69 264 -14 l 833 -14 b 1194 250 1056 -14 1194 56 l 1139 250 b 833 42 1139 83 1014 42 l 583 42 l 583 792 l 833 792 b 1139 583 1014 792 1139 750 l 1194 583 b 833 847 1194 778 1056 847 l 556 847 b 69 417 264 847 69 764 z "},"b":{"ha":1375,"x_min":0,"x_max":0,"o":"m 792 49 b 597 118 722 56 639 90 l 597 778 l 792 778 z m 903 -14 b 1306 410 1111 -14 1306 69 b 819 833 1306 764 1111 833 l 597 833 l 597 1111 l 111 1111 l 111 0 l 569 0 l 583 56 l 597 56 b 903 -14 653 28 750 -14 z "},"d":{"ha":1375,"x_min":0,"x_max":0,"o":"m 583 778 l 778 778 l 778 118 b 583 49 736 90 653 56 z m 472 -14 b 778 56 625 -14 722 28 l 792 56 l 806 0 l 1264 0 l 1264 1111 l 778 1111 l 778 833 l 556 833 b 69 410 264 833 69 764 b 472 -14 69 69 264 -14 z "},"e":{"ha":1236,"x_min":0,"x_max":0,"o":"m 69 417 b 556 -14 69 69 264 -14 l 806 -14 b 1167 250 1028 -14 1167 56 l 1111 250 b 806 42 1111 83 986 42 l 583 42 l 583 389 l 1181 389 b 625 847 1181 778 1042 847 b 69 417 264 847 69 764 z m 583 792 b 1125 444 1000 792 1125 750 l 583 444 z "},"f":{"ha":917,"x_min":0,"x_max":0,"o":"m 597 653 l 597 1069 b 903 903 778 1069 903 1028 l 958 903 b 597 1125 958 1056 819 1125 b 111 778 306 1125 111 1042 l 111 0 l 597 0 l 597 597 l 847 597 l 847 653 z "},"t":{"ha":958,"x_min":0,"x_max":0,"o":"m 833 653 l 833 708 l 583 708 l 583 1111 l 97 1111 l 97 333 b 583 -14 97 69 292 -14 b 944 208 806 -14 944 56 l 889 208 b 583 42 889 83 764 42 l 583 653 z "},"o":{"ha":1333,"x_min":0,"x_max":0,"o":"m 569 792 l 764 792 l 764 42 l 569 42 z m 583 847 b 69 417 264 847 69 764 b 583 -14 69 56 264 -14 l 750 -14 b 1264 417 1069 -14 1264 56 b 750 847 1264 764 1069 847 z "},"g":{"ha":1347,"x_min":0,"x_max":0,"o":"m 569 778 l 792 778 l 792 194 l 569 194 z m 792 0 l 792 -236 l 500 -236 b 194 -69 319 -236 194 -194 l 139 -69 b 500 -292 139 -222 278 -292 l 944 -292 b 1250 -118 1111 -292 1250 -264 b 944 56 1250 28 1111 56 l 569 56 l 569 139 l 778 139 b 1292 486 1097 139 1292 194 b 1139 764 1292 597 1236 701 l 1139 778 l 1278 778 l 1278 833 l 583 833 b 69 417 264 833 69 764 b 583 0 69 69 264 0 z "},"h":{"ha":1375,"x_min":0,"x_max":0,"o":"m 1278 0 l 1278 535 b 819 833 1278 764 1083 833 l 597 833 l 597 1111 l 111 1111 l 111 0 l 597 0 l 597 778 l 792 778 l 792 0 z "},"i":{"ha":708,"x_min":0,"x_max":0,"o":"m 597 833 l 111 833 l 111 0 l 597 0 z m 111 1000 l 597 1000 l 597 1056 l 111 1056 z "},"j":{"ha":722,"x_min":0,"x_max":0,"o":"m 125 -236 b -181 -69 -56 -236 -181 -194 l -236 -69 b 125 -292 -236 -222 -97 -292 b 611 56 417 -292 611 -208 l 611 833 l 125 833 z m 125 1000 l 611 1000 l 611 1056 l 125 1056 z "},"n":{"ha":1375,"x_min":0,"x_max":0,"o":"m 903 847 b 597 778 750 847 653 806 l 583 778 l 569 833 l 111 833 l 111 0 l 597 0 l 597 715 b 792 785 639 743 722 778 l 792 0 l 1278 0 l 1278 535 b 903 847 1278 764 1083 847 z "},"m":{"ha":1917,"x_min":0,"x_max":0,"o":"m 833 847 b 597 778 750 847 653 806 l 583 778 l 569 833 l 111 833 l 111 0 l 597 0 l 597 722 b 736 778 625 743 688 771 l 736 0 l 1194 0 l 1194 744 b 1333 785 1236 764 1285 778 l 1333 0 l 1819 0 l 1819 535 b 1444 847 1819 764 1625 847 b 1104 764 1306 847 1167 806 b 833 847 1035 826 931 847 z "},"u":{"ha":1389,"x_min":0,"x_max":0,"o":"m 486 -14 b 792 56 639 -14 736 28 l 806 56 l 819 0 l 1278 0 l 1278 833 l 792 833 l 792 118 b 597 49 750 90 667 56 l 597 833 l 111 833 l 111 299 b 486 -14 111 69 306 -14 z "},"p":{"ha":1375,"x_min":0,"x_max":0,"o":"m 792 56 l 597 56 l 597 715 b 792 785 639 743 722 778 z m 903 847 b 597 778 750 847 653 806 l 583 778 l 569 833 l 111 833 l 111 -278 l 597 -278 l 597 0 l 819 0 b 1306 424 1111 0 1306 69 b 903 847 1306 764 1111 847 z "},"q":{"ha":1375,"x_min":0,"x_max":0,"o":"m 583 785 b 778 715 653 778 736 743 l 778 56 l 583 56 z m 472 847 b 69 424 264 847 69 764 b 556 0 69 69 264 0 l 778 0 l 778 -278 l 1264 -278 l 1264 833 l 806 833 l 792 778 l 778 778 b 472 847 722 806 625 847 z "},"r":{"ha":1069,"x_min":0,"x_max":0,"o":"m 597 715 b 819 792 646 757 722 792 b 1014 694 931 792 1014 764 l 1069 694 b 819 847 1069 806 972 847 b 597 778 722 847 646 813 l 583 778 l 569 833 l 111 833 l 111 0 l 597 0 z "},"А":{"ha":1553,"x_min":0,"x_max":0,"o":"m 506 986 l 928 0 l 1525 0 l 1060 1111 l 499 1111 l 28 0 l 89 0 z "},"l":{"ha":708,"x_min":0,"x_max":0,"o":"m 597 1111 l 111 1111 l 111 0 l 597 0 z "},"k":{"ha":1361,"x_min":0,"x_max":0,"o":"m 597 1111 l 111 1111 l 111 0 l 597 0 l 597 417 l 799 0 l 1347 0 l 1014 674 l 1014 688 l 1236 833 l 1132 833 l 597 486 z "},"К":{"ha":1632,"x_min":0,"x_max":0,"o":"m 986 0 l 1632 0 l 1111 840 l 1111 854 l 1424 1111 l 1333 1111 l 667 556 l 667 1111 l 111 1111 l 111 0 l 667 0 l 667 486 l 694 507 z "},"к":{"ha":1361,"x_min":0,"x_max":0,"o":"m 597 833 l 111 833 l 111 0 l 597 0 l 597 417 l 799 0 l 1347 0 l 1014 674 l 1014 688 l 1236 833 l 1132 833 l 597 486 z "},"x":{"ha":1125,"x_min":0,"x_max":0,"o":"m 542 0 l 1125 0 l 840 444 l 1090 833 l 1028 833 l 799 500 l 583 833 l 0 833 l 285 389 l 35 0 l 97 0 l 326 333 z "},"Х":{"ha":1285,"x_min":0,"x_max":0,"o":"m 1229 1111 l 1167 1111 l 903 660 l 646 1111 l 0 1111 l 347 507 l 56 0 l 118 0 l 382 451 l 639 0 l 1285 0 l 938 604 z "},"v":{"ha":1111,"x_min":0,"x_max":0,"o":"m 535 833 l 14 833 l 319 0 l 792 0 l 1097 833 l 1035 833 l 785 139 z "},"y":{"ha":1153,"x_min":0,"x_max":0,"o":"m 1139 833 l 1076 833 l 813 146 l 528 833 l 14 833 l 361 14 l 764 14 l 743 -42 b 326 -236 674 -222 597 -236 l 326 -292 b 806 -42 653 -292 715 -278 z "},"w":{"ha":1708,"x_min":0,"x_max":0,"o":"m 736 0 l 840 313 l 993 0 l 1444 0 l 1694 833 l 1632 833 l 1444 201 l 1139 833 l 958 833 l 729 139 l 528 833 l 14 833 l 264 0 z "},"z":{"ha":1042,"x_min":0,"x_max":0,"o":"m 56 778 l 444 778 l 56 90 l 56 0 l 986 0 l 986 56 l 597 56 l 986 743 l 986 833 l 56 833 z "},"s":{"ha":1181,"x_min":0,"x_max":0,"o":"m 611 681 b 806 792 611 750 667 792 b 1042 611 917 792 1042 750 l 1097 611 b 806 847 1097 778 958 847 l 500 847 b 56 597 194 847 56 792 b 569 153 56 333 569 347 b 361 42 569 83 514 42 b 111 222 236 42 111 83 l 56 222 b 361 -14 56 56 194 -14 l 681 -14 b 1125 236 986 -14 1125 42 b 611 681 1125 500 611 486 z "},"а":{"ha":1319,"x_min":0,"x_max":0,"o":"m 431 500 b 56 243 264 500 56 431 b 431 -14 56 56 264 -14 b 736 56 583 -14 681 28 l 750 56 l 764 0 l 1222 0 l 1222 500 b 736 847 1222 764 1028 847 l 528 847 b 167 625 306 847 167 778 l 222 625 b 528 792 222 750 347 792 l 736 792 l 736 500 z m 583 56 l 583 444 l 736 444 l 736 111 b 583 56 694 83 639 63 z "},"с":{"ha":1236,"x_min":0,"x_max":0,"o":"m 69 417 b 556 -14 69 69 264 -14 l 833 -14 b 1194 250 1056 -14 1194 56 l 1139 250 b 833 42 1139 83 1014 42 l 583 42 l 583 792 l 833 792 b 1139 583 1014 792 1139 750 l 1194 583 b 833 847 1194 778 1056 847 l 556 847 b 69 417 264 847 69 764 z "},"э":{"ha":1236,"x_min":0,"x_max":0,"o":"m 1167 417 b 681 847 1167 764 972 847 l 403 847 b 42 583 181 847 42 778 l 97 583 b 403 792 97 750 222 792 l 653 792 l 653 42 l 403 42 b 97 250 222 42 97 83 l 42 250 b 403 -14 42 56 181 -14 l 681 -14 b 1167 417 972 -14 1167 69 z "},"е":{"ha":1236,"x_min":0,"x_max":0,"o":"m 69 417 b 556 -14 69 69 264 -14 l 806 -14 b 1167 250 1028 -14 1167 56 l 1111 250 b 806 42 1111 83 986 42 l 583 42 l 583 389 l 1181 389 b 625 847 1181 778 1042 847 b 69 417 264 847 69 764 z m 583 792 b 1125 444 1000 792 1125 750 l 583 444 z "},"о":{"ha":1333,"x_min":0,"x_max":0,"o":"m 569 792 l 764 792 l 764 42 l 569 42 z m 583 847 b 69 417 264 847 69 764 b 583 -14 69 56 264 -14 l 750 -14 b 1264 417 1069 -14 1264 56 b 750 847 1264 764 1069 847 z "},"р":{"ha":1375,"x_min":0,"x_max":0,"o":"m 792 56 l 597 56 l 597 715 b 792 785 639 743 722 778 z m 903 847 b 597 778 750 847 653 806 l 583 778 l 569 833 l 111 833 l 111 -278 l 597 -278 l 597 0 l 819 0 b 1306 424 1111 0 1306 69 b 903 847 1306 764 1111 847 z "},"у":{"ha":1153,"x_min":0,"x_max":0,"o":"m 1139 833 l 1076 833 l 813 146 l 528 833 l 14 833 l 361 14 l 764 14 l 743 -42 b 326 -236 674 -222 597 -236 l 326 -292 b 806 -42 653 -292 715 -278 z "},"г":{"ha":1028,"x_min":0,"x_max":0,"o":"m 111 0 l 597 0 l 597 778 l 1014 778 l 1014 833 l 111 833 z "},"т":{"ha":1153,"x_min":0,"x_max":0,"o":"m 14 778 l 333 778 l 333 0 l 819 0 l 819 778 l 1139 778 l 1139 833 l 14 833 z "},"н":{"ha":1389,"x_min":0,"x_max":0,"o":"m 792 0 l 1278 0 l 1278 833 l 792 833 l 792 444 l 597 444 l 597 833 l 111 833 l 111 0 l 597 0 l 597 389 l 792 389 z "},"п":{"ha":1389,"x_min":0,"x_max":0,"o":"m 792 0 l 1278 0 l 1278 833 l 111 833 l 111 0 l 597 0 l 597 778 l 792 778 z "},"х":{"ha":1125,"x_min":0,"x_max":0,"o":"m 542 0 l 1125 0 l 840 444 l 1090 833 l 1028 833 l 799 500 l 583 833 l 0 833 l 285 389 l 35 0 l 97 0 l 326 333 z "},"и":{"ha":1403,"x_min":0,"x_max":0,"o":"m 819 0 l 1292 0 l 1292 833 l 819 833 l 583 167 l 583 833 l 111 833 l 111 0 l 583 0 l 819 667 z "},"й":{"ha":1403,"x_min":0,"x_max":0,"o":"m 819 0 l 1292 0 l 1292 833 l 819 833 l 583 167 l 583 833 l 111 833 l 111 0 l 583 0 l 819 667 z m 701 986 b 972 1167 861 986 972 1056 l 917 1167 b 701 1042 917 1097 819 1042 b 486 1167 583 1042 486 1097 l 431 1167 b 701 986 431 1056 542 986 z "},"м":{"ha":1590,"x_min":0,"x_max":0,"o":"m 840 444 l 604 833 l 111 833 l 111 0 l 167 0 l 167 625 l 542 0 l 722 0 l 993 681 l 993 0 l 1479 0 l 1479 833 l 993 833 z "},"М":{"ha":1944,"x_min":0,"x_max":0,"o":"m 1278 0 l 1833 0 l 1833 1111 l 1278 1111 l 1049 521 l 694 1111 l 111 1111 l 111 0 l 167 0 l 167 903 l 715 0 l 903 0 l 1278 958 z "},"в":{"ha":1389,"x_min":0,"x_max":0,"o":"m 1042 431 b 1278 625 1167 458 1278 528 b 833 833 1278 778 1069 833 l 111 833 l 111 0 l 778 0 b 1333 222 1083 0 1333 56 b 1042 417 1333 333 1208 403 z m 597 56 l 597 778 l 778 778 l 778 56 z "},"з":{"ha":1222,"x_min":0,"x_max":0,"o":"m 403 42 b 97 250 222 42 97 83 l 42 250 b 403 -14 42 56 181 -14 l 611 -14 b 1167 208 917 -14 1167 28 b 875 417 1167 333 1042 403 l 875 431 b 1153 639 1050 458 1153 528 b 667 847 1153 806 944 847 l 403 847 b 42 583 181 847 42 778 l 97 583 b 403 792 97 750 222 792 l 611 792 l 611 42 z "},"ь":{"ha":1333,"x_min":0,"x_max":0,"o":"m 597 833 l 111 833 l 111 0 l 778 0 b 1306 264 1056 0 1306 56 b 778 528 1306 444 1056 528 l 597 528 z m 778 472 l 778 56 l 597 56 l 597 472 z "},"ъ":{"ha":1417,"x_min":0,"x_max":0,"o":"m 0 778 l 194 778 l 194 0 l 861 0 b 1389 264 1139 0 1389 56 b 861 528 1389 444 1139 528 l 681 528 l 681 833 l 0 833 z m 861 472 l 861 56 l 681 56 l 681 472 z "},"ю":{"ha":1875,"x_min":0,"x_max":0,"o":"m 1181 847 b 667 444 875 847 681 778 l 597 444 l 597 833 l 111 833 l 111 0 l 597 0 l 597 389 l 667 389 b 1181 -14 681 56 875 -14 l 1292 -14 b 1806 417 1611 -14 1806 56 b 1292 847 1806 764 1611 847 z m 1153 792 l 1319 792 l 1319 42 l 1153 42 z "},"ы":{"ha":1931,"x_min":0,"x_max":0,"o":"m 597 833 l 111 833 l 111 0 l 750 0 b 1278 264 1028 0 1278 56 b 750 528 1278 444 1028 528 l 597 528 z m 750 472 l 750 56 l 597 56 l 597 472 z m 1819 833 l 1333 833 l 1333 0 l 1819 0 z "},"ж":{"ha":1889,"x_min":0,"x_max":0,"o":"m 167 833 l 63 833 l 250 715 l 250 701 l 14 0 l 528 0 l 674 438 l 701 417 l 701 0 l 1188 0 l 1188 417 l 1215 438 l 1361 0 l 1875 0 l 1639 701 l 1639 715 l 1826 833 l 1722 833 l 1188 486 l 1188 833 l 701 833 l 701 486 z "},"ч":{"ha":1333,"x_min":0,"x_max":0,"o":"m 736 292 l 736 0 l 1222 0 l 1222 833 l 736 833 l 736 347 l 556 347 l 556 833 l 56 833 l 56 625 b 556 292 56 375 250 292 z "},"ф":{"ha":1792,"x_min":0,"x_max":0,"o":"m 1278 778 l 1278 56 l 1125 56 l 1125 778 z m 667 778 l 667 56 l 514 56 l 514 778 z m 653 1111 l 653 833 l 528 833 b 42 417 236 833 42 764 b 528 0 42 69 236 0 l 653 0 l 653 -278 l 1139 -278 l 1139 0 l 1264 0 b 1750 417 1556 0 1750 69 b 1264 833 1750 764 1556 833 l 1139 833 l 1139 1111 z "},"ц":{"ha":1431,"x_min":0,"x_max":0,"o":"m 1389 0 l 1389 56 l 1292 56 l 1292 833 l 806 833 l 806 56 l 597 56 l 597 833 l 111 833 l 111 0 z "},"ш":{"ha":1903,"x_min":0,"x_max":0,"o":"m 1319 56 l 1188 56 l 1188 833 l 715 833 l 715 56 l 583 56 l 583 833 l 111 833 l 111 0 l 1792 0 l 1792 833 l 1319 833 z "},"щ":{"ha":1931,"x_min":0,"x_max":0,"o":"m 1889 0 l 1889 56 l 1792 56 l 1792 833 l 1319 833 l 1319 56 l 1188 56 l 1188 833 l 715 833 l 715 56 l 583 56 l 583 833 l 111 833 l 111 0 z "},"л":{"ha":1208,"x_min":0,"x_max":0,"o":"m 194 833 b 0 56 194 333 139 56 l 0 0 b 250 778 194 0 250 278 l 611 778 l 611 0 l 1097 0 l 1097 833 z "},"д":{"ha":1264,"x_min":0,"x_max":0,"o":"m -28 0 l 1222 0 l 1222 56 l 1125 56 l 1125 833 l 208 833 b 69 56 208 431 181 250 l -28 56 z m 264 778 l 639 778 l 639 56 l 132 56 b 264 778 236 250 264 431 z "},"я":{"ha":1326,"x_min":0,"x_max":0,"o":"m 563 361 l 563 778 l 729 778 l 729 361 z m 729 0 l 1215 0 l 1215 833 l 563 833 b 35 569 285 833 35 778 b 201 368 35 479 97 410 l 201 354 l 14 0 l 549 0 l 715 306 l 729 306 z "},"б":{"ha":1333,"x_min":0,"x_max":0,"o":"m 556 681 l 778 681 l 778 42 l 556 42 z m 507 1042 b 69 514 236 1007 69 903 b 583 -14 69 56 264 -14 l 750 -14 b 1264 361 1069 -14 1264 56 b 750 736 1264 653 1069 736 l 542 736 l 542 993 l 1174 1069 l 1167 1125 z "},"Ё":{"ha":1236,"x_min":0,"x_max":0,"o":"m 111 0 l 1208 0 l 1208 56 l 667 56 l 667 556 l 1056 556 l 1056 611 l 667 611 l 667 1056 l 1181 1056 l 1181 1111 l 111 1111 z m 125 1278 l 569 1278 l 569 1333 l 125 1333 z m 722 1278 l 1167 1278 l 1167 1333 l 722 1333 z "},"ё":{"ha":1236,"x_min":0,"x_max":0,"o":"m 69 417 b 556 -14 69 69 264 -14 l 806 -14 b 1167 250 1028 -14 1167 56 l 1111 250 b 806 42 1111 83 986 42 l 583 42 l 583 389 l 1181 389 b 625 847 1181 778 1042 847 b 69 417 264 847 69 764 z m 583 792 b 1125 444 1000 792 1125 750 l 583 444 z m 153 986 l 556 986 l 556 1042 l 153 1042 z m 694 986 l 1097 986 l 1097 1042 l 694 1042 z "},"€":{"ha":1556,"x_min":0,"x_max":0,"o":"m 722 1125 b 118 694 424 1125 167 1049 l 42 694 l 42 639 l 111 639 l 111 500 l 14 500 l 14 444 l 118 444 b 722 -14 160 69 417 -14 l 972 -14 b 1500 333 1264 -14 1500 35 l 1444 333 b 972 42 1444 76 1222 42 l 722 42 l 722 444 l 1181 444 l 1181 500 l 722 500 l 722 639 l 1208 639 l 1208 694 l 722 694 l 722 1069 l 972 1069 b 1444 778 1222 1069 1444 1035 l 1500 778 b 972 1125 1500 1076 1264 1125 z "},".":{"ha":667,"x_min":0,"x_max":0,"o":"m 292 292 b 111 181 181 292 111 264 l 111 111 b 292 0 111 28 181 0 l 375 0 b 556 111 486 0 556 28 l 556 181 b 375 292 556 264 486 292 z "},":":{"ha":639,"x_min":0,"x_max":0,"o":"m 278 292 b 97 181 167 292 97 264 l 97 111 b 278 0 97 28 167 0 l 361 0 b 542 111 472 0 542 28 l 542 181 b 361 292 542 264 472 292 z m 278 833 b 97 722 167 833 97 806 l 97 653 b 278 542 97 569 167 542 l 361 542 b 542 653 472 542 542 569 l 542 722 b 361 833 542 806 472 833 z "},",":{"ha":639,"x_min":0,"x_max":0,"o":"m 479 21 b 319 -167 465 -97 431 -167 l 319 -222 b 542 111 486 -222 542 -97 l 542 181 b 361 292 542 264 472 292 l 278 292 b 97 181 167 292 97 264 l 97 111 b 278 0 97 28 167 0 l 361 0 b 479 21 410 0 458 7 z "},"$":{"ha":1361,"x_min":0,"x_max":0,"o":"m 694 194 b 500 42 694 97 639 42 l 500 385 b 694 194 608 335 694 283 z m 1306 306 b 917 701 1306 536 1096 624 l 917 1069 b 1243 778 1097 1063 1243 1014 l 1299 778 b 917 1125 1299 1056 1139 1118 l 917 1208 l 861 1208 l 861 1125 l 611 1125 b 56 806 278 1125 56 1056 b 444 410 56 575 265 488 l 444 42 b 118 333 264 49 118 97 l 63 333 b 444 -14 63 56 222 -7 l 444 -97 l 500 -97 l 500 -14 l 750 -14 b 1306 306 1083 -14 1306 56 z m 667 917 b 861 1069 667 1014 722 1069 l 861 726 b 667 917 753 776 667 828 z "},"!":{"ha":778,"x_min":0,"x_max":0,"o":"m 347 292 b 167 181 236 292 167 264 l 167 111 b 347 0 167 28 236 0 l 431 0 b 611 111 542 0 611 28 l 611 181 b 431 292 611 264 542 292 z m 167 375 l 611 375 l 667 1111 l 111 1111 z "},"]":{"ha":917,"x_min":0,"x_max":0,"o":"m 0 1194 l 250 1194 l 250 -83 l 0 -83 l 0 -139 l 806 -139 l 806 1250 l 0 1250 z "},"[":{"ha":917,"x_min":0,"x_max":0,"o":"m 917 1250 l 111 1250 l 111 -139 l 917 -139 l 917 -83 l 667 -83 l 667 1194 l 917 1194 z "},"\\":{"ha":1076,"x_min":0,"x_max":0,"o":"m 1076 -69 l 597 1181 l 0 1181 l 479 -69 z "},"/":{"ha":549,"x_min":0,"x_max":0,"o":"m 549 1181 l 486 1181 l 0 -69 l 63 -69 z "},";":{"ha":667,"x_min":0,"x_max":0,"o":"m 292 833 b 111 722 181 833 111 806 l 111 653 b 292 542 111 569 181 542 l 375 542 b 556 653 486 542 556 569 l 556 722 b 375 833 556 806 486 833 z m 493 21 b 333 -167 479 -97 444 -167 l 333 -222 b 556 111 500 -222 556 -97 l 556 181 b 375 292 556 264 486 292 l 292 292 b 111 181 181 292 111 264 l 111 111 b 292 0 111 28 181 0 l 375 0 b 493 21 424 0 472 7 z "},"№":{"ha":2014,"x_min":0,"x_max":0,"o":"m 111 1111 l 111 0 l 167 0 l 167 903 l 715 0 l 1292 0 l 1292 1111 l 1236 1111 l 1236 208 l 688 1111 z m 1681 667 b 1986 889 1847 667 1986 708 b 1681 1111 1986 1069 1847 1111 b 1375 889 1514 1111 1375 1069 b 1681 667 1375 708 1514 667 z m 1403 556 l 1958 556 l 1958 611 l 1403 611 z m 1653 722 l 1653 1056 l 1708 1056 l 1708 722 z "},"(":{"ha":931,"x_min":0,"x_max":0,"o":"m 681 1194 l 931 1194 l 931 1250 l 681 1250 b 69 556 347 1250 69 1153 b 681 -139 69 -42 347 -139 l 931 -139 l 931 -83 l 681 -83 z "},")":{"ha":931,"x_min":0,"x_max":0,"o":"m 250 -83 l 0 -83 l 0 -139 l 250 -139 b 861 556 583 -139 861 -42 b 250 1250 861 1153 583 1250 l 0 1250 l 0 1194 l 250 1194 z "},"’":{"ha":667,"x_min":0,"x_max":0,"o":"m 493 840 b 333 653 479 722 444 653 l 333 597 b 556 931 500 597 556 722 l 556 1000 b 375 1111 556 1083 486 1111 l 292 1111 b 111 1000 181 1111 111 1083 l 111 931 b 292 819 111 847 181 819 l 375 819 b 493 840 424 819 472 826 z "},"‘":{"ha":667,"x_min":0,"x_max":0,"o":"m 174 868 b 333 1056 188 986 222 1056 l 333 1111 b 111 778 167 1111 111 986 l 111 708 b 292 597 111 625 181 597 l 375 597 b 556 708 486 597 556 625 l 556 778 b 375 889 556 861 486 889 l 292 889 b 174 868 243 889 194 882 z "},"”":{"ha":1000,"x_min":0,"x_max":0,"o":"m 410 840 b 250 653 396 722 361 653 l 250 597 b 472 931 417 597 472 722 l 472 1000 b 292 1111 472 1083 403 1111 b 111 1000 181 1111 111 1083 l 111 931 b 292 819 111 847 181 819 b 410 840 340 819 389 826 z m 826 840 b 667 653 813 722 778 653 l 667 597 b 889 931 833 597 889 722 l 889 1000 b 708 1111 889 1083 819 1111 b 528 1000 597 1111 528 1083 l 528 931 b 708 819 528 847 597 819 b 826 840 757 819 806 826 z "},"“":{"ha":1000,"x_min":0,"x_max":0,"o":"m 590 868 b 750 1056 604 986 639 1056 l 750 1111 b 528 778 583 1111 528 986 l 528 708 b 708 597 528 625 597 597 b 889 708 819 597 889 625 l 889 778 b 708 889 889 861 819 889 b 590 868 660 889 611 882 z m 174 868 b 333 1056 188 986 222 1056 l 333 1111 b 111 778 167 1111 111 986 l 111 708 b 292 597 111 625 181 597 b 472 708 403 597 472 625 l 472 778 b 292 889 472 861 403 889 b 174 868 243 889 194 882 z "},"?":{"ha":1361,"x_min":0,"x_max":0,"o":"m 813 375 b 1319 819 813 556 1319 500 b 722 1125 1319 1069 1097 1125 l 431 1125 b 28 778 215 1125 28 1076 l 83 778 b 431 1069 83 1035 257 1069 b 708 903 653 1069 708 1000 b 368 431 708 708 368 750 l 368 375 z m 549 292 b 368 181 438 292 368 264 l 368 111 b 549 0 368 28 438 0 l 632 0 b 813 111 743 0 813 28 l 813 181 b 632 292 813 264 743 292 z "},"&":{"ha":1736,"x_min":0,"x_max":0,"o":"m 1611 556 l 1611 611 l 1361 611 l 1361 778 l 875 778 l 875 611 l 708 611 l 708 1069 l 833 1069 b 1306 833 1083 1069 1306 1035 l 1361 833 b 833 1125 1361 1076 1125 1125 l 708 1125 b 69 819 347 1125 69 1042 b 410 597 69 708 194 625 l 410 576 b 56 292 194 542 56 451 b 708 -14 56 42 333 -14 l 1361 -14 b 1722 208 1583 -14 1722 56 l 1667 208 b 1361 42 1667 83 1542 42 l 1361 556 z m 708 42 l 708 556 l 875 556 l 875 333 b 1043 42 875 181 938 90 z "},"@":{"ha":2306,"x_min":0,"x_max":0,"o":"m 1229 903 l 1215 861 l 1208 861 b 993 910 1167 882 1097 910 b 708 556 854 910 708 861 b 993 201 708 250 854 201 b 1208 250 1097 201 1167 229 l 1215 250 l 1229 208 l 1625 208 b 2236 660 1958 208 2236 306 b 1625 1111 2236 1014 1958 1111 l 681 1111 b 69 556 347 1111 69 1014 b 681 0 69 97 347 0 l 1625 0 b 2153 208 1917 0 2153 49 l 2097 208 b 1625 56 2097 90 1875 56 l 625 56 l 625 1056 l 1681 1056 l 1681 264 l 1569 264 l 1569 903 z m 1097 840 b 1208 806 1139 840 1181 826 l 1208 306 b 1097 271 1181 285 1139 271 z "},"<":{"ha":653,"x_min":0,"x_max":0,"o":"m 42 444 l 42 389 l 583 76 l 611 125 l 104 417 l 611 708 l 583 757 z "},">":{"ha":653,"x_min":0,"x_max":0,"o":"m 69 757 l 42 708 l 549 417 l 42 125 l 69 76 l 611 389 l 611 444 z "},"›":{"ha":653,"x_min":0,"x_max":0,"o":"m 69 757 l 42 708 l 549 417 l 42 125 l 69 76 l 611 389 l 611 444 z "},"‹":{"ha":653,"x_min":0,"x_max":0,"o":"m 42 444 l 42 389 l 583 76 l 611 125 l 104 417 l 611 708 l 583 757 z "},"»":{"ha":639,"x_min":0,"x_max":0,"o":"m 542 417 l 139 76 l 174 35 l 597 389 l 597 444 l 174 799 l 139 757 z m 361 417 l 42 146 l 76 104 l 417 389 l 417 444 l 76 729 l 42 688 z "},"«":{"ha":639,"x_min":0,"x_max":0,"o":"m 500 757 l 465 799 l 42 444 l 42 389 l 465 35 l 500 76 l 97 417 z m 597 688 l 563 729 l 222 444 l 222 389 l 563 104 l 597 146 l 278 417 z "},"^":{"ha":556,"x_min":0,"x_max":0,"o":"m 28 736 l 97 736 l 278 1049 l 458 736 l 528 736 l 306 1111 l 250 1111 z "},"¶":{"ha":1736,"x_min":0,"x_max":0,"o":"m 1611 1056 l 1708 1056 l 1708 1111 l 500 1111 b 42 736 236 1111 42 1028 b 500 361 42 431 236 361 l 500 0 l 1000 0 l 1000 1056 l 1111 1056 l 1111 0 l 1611 0 z "},"…":{"ha":1611,"x_min":0,"x_max":0,"o":"m 292 292 b 111 181 181 292 111 264 l 111 111 b 292 0 111 28 181 0 b 472 111 403 0 472 28 l 472 181 b 292 292 472 264 403 292 z m 806 292 b 625 181 694 292 625 264 l 625 111 b 806 0 625 28 694 0 b 986 111 917 0 986 28 l 986 181 b 806 292 986 264 917 292 z m 1319 292 b 1139 181 1208 292 1139 264 l 1139 111 b 1319 0 1139 28 1208 0 b 1500 111 1431 0 1500 28 l 1500 181 b 1319 292 1500 264 1431 292 z "},"¤":{"ha":1583,"x_min":0,"x_max":0,"o":"m 28 472 l 125 472 l 125 417 l 28 417 l 28 361 l 125 361 l 125 0 l 681 0 l 681 361 l 715 361 l 910 0 l 1542 0 l 1319 417 l 681 417 l 681 472 l 903 472 b 1528 792 1250 472 1528 569 b 903 1111 1528 1014 1250 1111 l 125 1111 l 125 528 l 28 528 z m 903 528 l 681 528 l 681 1056 l 903 1056 z "},"—":{"ha":1056,"x_min":0,"x_max":0,"o":"m 42 486 l 1014 486 l 1014 542 l 42 542 z "},"–":{"ha":778,"x_min":0,"x_max":0,"o":"m 42 486 l 736 486 l 736 542 l 42 542 z "},"-":{"ha":778,"x_min":0,"x_max":0,"o":"m 42 486 l 736 486 l 736 542 l 42 542 z "},"+":{"ha":778,"x_min":0,"x_max":0,"o":"m 361 861 l 361 542 l 42 542 l 42 486 l 361 486 l 361 167 l 417 167 l 417 486 l 736 486 l 736 542 l 417 542 l 417 861 z "},"=":{"ha":778,"x_min":0,"x_max":0,"o":"m 42 625 l 736 625 l 736 681 l 42 681 z m 42 347 l 736 347 l 736 403 l 42 403 z "},"_":{"ha":833,"x_min":0,"x_max":0,"o":"m 0 -56 l 833 -56 l 833 0 l 0 0 z "},"#":{"ha":1701,"x_min":0,"x_max":0,"o":"m 14 0 l 569 0 l 694 333 l 833 333 l 708 0 l 1264 0 l 1389 333 l 1575 333 l 1575 389 l 1410 389 l 1542 722 l 1688 722 l 1688 778 l 1563 778 l 1688 1111 l 1132 1111 l 1007 778 l 868 778 l 993 1111 l 438 1111 l 313 778 l 126 778 l 126 722 l 292 722 l 160 389 l 14 389 l 14 333 l 139 333 z m 826 722 l 1007 722 l 875 389 l 694 389 z "},"•":{"ha":833,"x_min":0,"x_max":0,"o":"m 639 590 b 458 771 639 701 569 771 l 375 771 b 194 590 264 771 194 701 l 194 521 b 375 340 194 410 264 340 l 458 340 b 639 521 569 340 639 410 z "},"'":{"ha":583,"x_min":0,"x_max":0,"o":"m 472 1111 l 111 1111 l 167 611 l 417 611 z "},"\"":{"ha":917,"x_min":0,"x_max":0,"o":"m 417 1111 l 111 1111 l 167 611 l 361 611 z m 806 1111 l 500 1111 l 556 611 l 750 611 z "},"`":{"ha":500,"x_min":0,"x_max":0,"o":"m 319 1139 l 42 1042 l 250 576 l 458 653 z "},"}":{"ha":993,"x_min":0,"x_max":0,"o":"m 250 -83 l 0 -83 l 0 -139 l 250 -139 b 861 243 583 -139 861 -42 b 951 528 861 403 875 493 l 951 583 b 861 868 875 618 861 708 b 250 1250 861 1153 583 1250 l 0 1250 l 0 1194 l 250 1194 l 250 847 b 604 563 250 688 389 597 l 604 549 b 250 264 389 514 250 424 z "},"{":{"ha":993,"x_min":0,"x_max":0,"o":"m 743 264 b 389 549 743 424 604 514 l 389 563 b 743 847 604 597 743 688 l 743 1194 l 993 1194 l 993 1250 l 743 1250 b 132 868 410 1250 132 1153 b 42 583 132 708 118 618 l 42 528 b 132 243 118 493 132 403 b 743 -139 132 -42 410 -139 l 993 -139 l 993 -83 l 743 -83 z "},"B":{"ha":1583,"x_min":0,"x_max":0,"o":"m 889 56 l 667 56 l 667 1056 l 889 1056 z m 1188 597 b 1486 833 1361 625 1486 711 b 889 1111 1486 1014 1208 1111 l 111 1111 l 111 0 l 889 0 b 1542 306 1264 0 1542 97 b 1188 576 1542 453 1403 542 z "}}}
